<svg width="17" height="14" viewBox="0 0 17 14" fill="none" xmlns="http://www.w3.org/2000/svg">
<path d="M5.03143 13.1591C11.1466 13.1591 14.475 8.12769 14.475 3.71551C14.475 3.5607 14.475 3.40589 14.475 3.25108C15.0943 2.78664 15.7136 2.16739 16.1006 1.54813C15.4813 1.78035 14.8621 2.01257 14.1654 2.08998C14.8621 1.70294 15.4039 1.00628 15.6361 0.232211C15.0169 0.619244 14.3202 0.851464 13.5462 1.00628C12.9269 0.387024 12.0754 0 11.1466 0C9.2888 0 7.81807 1.47072 7.81807 3.32848C7.81807 3.5607 7.81808 3.87032 7.89548 4.10254C5.10884 3.94773 2.70923 2.63182 1.08369 0.619244C0.774068 1.08368 0.619256 1.70294 0.619256 2.24479C0.619256 3.40589 1.23851 4.41218 2.08998 5.03143C1.54813 5.03143 1.00629 4.87662 0.619256 4.6444C0.619256 4.6444 0.619256 4.64439 0.619256 4.7218C0.619256 6.34734 1.78035 7.66325 3.25108 7.97288C2.94145 8.05028 2.70923 8.1277 2.39961 8.1277C2.16739 8.1277 2.01258 8.12769 1.78036 8.05029C2.16739 9.3662 3.40589 10.2951 4.87662 10.3725C3.71552 11.224 2.3222 11.7658 0.774067 11.7658C0.541847 11.7658 0.23222 11.7658 0 11.6884C1.39332 12.6173 3.17367 13.1591 5.03143 13.1591Z" fill="#4A4A49"/>
</svg>
