<svg width="17" height="17" viewBox="0 0 17 17" fill="none" xmlns="http://www.w3.org/2000/svg">
<path d="M15.5053 12.1546C15.5053 13.9614 14.0128 15.4396 12.2716 15.4396H4.89204C3.06789 15.4396 1.65832 13.9614 1.65832 12.1546V4.84541C1.65832 3.03865 3.1508 1.56039 4.89204 1.56039H12.2716C14.0957 1.56039 15.5053 3.03865 15.5053 4.84541V12.1546ZM12.1057 0H4.89204C2.15581 0 0 2.21739 0 4.92754V12.0725C0 14.7826 2.23873 17 4.89204 17H10.5303H12.1057C14.842 17 16.9978 14.7826 16.9978 12.0725V4.92754C17.0807 2.21739 14.842 0 12.1057 0ZM8.54034 11.3333C6.96494 11.3333 5.63828 10.0193 5.63828 8.45894C5.63828 6.89855 6.88202 5.58454 8.54034 5.58454C10.1987 5.58454 11.4424 6.89855 11.4424 8.45894C11.4424 10.1014 10.1157 11.3333 8.54034 11.3333ZM8.54034 4.10628C6.13578 4.10628 4.1458 6.07729 4.1458 8.54106C4.1458 11.0048 6.13578 12.9758 8.54034 12.9758C10.9449 12.9758 12.9349 11.0048 12.9349 8.54106C12.9349 6.07729 10.9449 4.10628 8.54034 4.10628ZM13.1007 2.8744C12.5203 2.8744 12.1057 3.36715 12.1057 3.8599C12.1057 4.35266 12.6032 4.84541 13.1007 4.84541C13.6811 4.84541 14.0957 4.35266 14.0957 3.8599C14.0957 3.36715 13.6811 2.8744 13.1007 2.8744Z" fill="#4A4A49"/>
</svg>
