<svg width="100" height="80" viewBox="0 0 100 80" fill="none" xmlns="http://www.w3.org/2000/svg">
<g clip-path="url(#clip0)">
<path opacity="0.1" fill-rule="evenodd" clip-rule="evenodd" d="M28.2136 61.6396C39.9293 73.3553 58.9242 73.3553 70.64 61.6396C82.3557 49.9239 82.3557 30.9289 70.64 19.2132C58.9242 7.49747 39.9293 7.49747 28.2136 19.2132C16.4978 30.9289 16.4978 49.9239 28.2136 61.6396Z" fill="#06C92E"/>
<path d="M59.6869 12.2352C44.1175 6.56844 26.9023 14.596 21.2355 30.1654" stroke="#06C92E" stroke-width="4" stroke-linecap="round"/>
<path d="M70.2665 62.0058C82.1849 50.4963 82.5164 31.5042 71.0069 19.5858" stroke="#06C92E" stroke-width="4" stroke-linecap="round"/>
<path d="M74.0007 57.6332C83.504 44.061 80.2056 25.3546 66.6334 15.8513" stroke="#00BE52" stroke-width="4" stroke-linecap="round"/>
<path d="M23.1881 54.9704C31.2207 69.4616 49.4798 74.6973 63.971 66.6647" stroke="#06C92E" stroke-width="4" stroke-linecap="round"/>
<path fill-rule="evenodd" clip-rule="evenodd" d="M50.5 57C58.5081 57 65 52.6923 65 43C65 35.268 58.5081 29 50.5 29C42.4919 29 36 35.268 36 43C36 52.6923 42.4919 57 50.5 57Z" stroke="#06C92E" stroke-width="4"/>
<path d="M50.5 46C51.3284 46 52 45.3284 52 44.5C52 43.6716 51.3284 43 50.5 43C49.6716 43 49 43.6716 49 44.5C49 45.3284 49.6716 46 50.5 46Z" stroke="#06C92E" stroke-width="3"/>
<path d="M44 40C44.5523 40 45 39.5523 45 39C45 38.4477 44.5523 38 44 38C43.4477 38 43 38.4477 43 39C43 39.5523 43.4477 40 44 40Z" stroke="#06C92E" stroke-width="2"/>
<path d="M57 40C57.5523 40 58 39.5523 58 39C58 38.4477 57.5523 38 57 38C56.4477 38 56 38.4477 56 39C56 39.5523 56.4477 40 57 40Z" stroke="#06C92E" stroke-width="2"/>
<path d="M44.3137 29.2438C41.9706 26.9007 38.4882 26.5841 36.5355 28.5367C34.5829 30.4894 34.8995 33.9718 37.2426 36.3149" stroke="#06C92E" stroke-width="4"/>
<path d="M64.0706 36.3137C66.4138 33.9706 66.7303 30.4882 64.7777 28.5355C62.8251 26.5829 59.3427 26.8995 56.9995 29.2426" stroke="#06C92E" stroke-width="4"/>
<path d="M16 25.6602L19.6606 33.8821L27.8825 30.2214" stroke="#06C92E" stroke-width="4" stroke-linecap="round" stroke-linejoin="round"/>
</g>
<defs>
<clipPath id="clip0">
<rect width="100" height="80" fill="white"/>
</clipPath>
</defs>
</svg>
