<svg width="17" height="14" fill="none" xmlns="http://www.w3.org/2000/svg"><path d="M5.031 13.16c6.116 0 9.444-5.032 9.444-9.444V3.25c.62-.464 1.239-1.084 1.626-1.703-.62.232-1.239.465-1.936.542.697-.387 1.239-1.084 1.471-1.858-.62.387-1.316.62-2.09.774A3.396 3.396 0 0011.146 0a3.304 3.304 0 00-3.328 3.328c0 .233 0 .542.077.775A9.346 9.346 0 011.084.619c-.31.465-.465 1.084-.465 1.626 0 1.16.62 2.167 1.471 2.786a2.964 2.964 0 01-1.47-.387v.078a3.328 3.328 0 002.631 3.25c-.31.078-.542.156-.851.156-.233 0-.387 0-.62-.078.387 1.316 1.626 2.245 3.097 2.322-1.161.852-2.555 1.394-4.103 1.394-.232 0-.542 0-.774-.078 1.393.93 3.174 1.471 5.031 1.471z" fill="#4A4A49"/></svg>