<svg width="17" height="17" fill="none" xmlns="http://www.w3.org/2000/svg"><path d="M15.505 12.155c0 1.806-1.492 3.285-3.233 3.285h-7.38c-1.824 0-3.234-1.479-3.234-3.285v-7.31c0-1.806 1.493-3.285 3.234-3.285h7.38c1.824 0 3.233 1.479 3.233 3.285v7.31zM12.105 0H4.893C2.156 0 0 2.217 0 4.928v7.144C0 14.782 2.239 17 4.892 17h7.214c2.736 0 4.892-2.217 4.892-4.928V4.928C17.08 2.218 14.842 0 12.106 0zM8.54 11.333c-1.575 0-2.902-1.314-2.902-2.874A2.87 2.87 0 018.54 5.585a2.87 2.87 0 012.902 2.874c0 1.642-1.326 2.874-2.902 2.874zm0-7.227c-2.404 0-4.394 1.971-4.394 4.435 0 2.464 1.99 4.435 4.394 4.435 2.405 0 4.395-1.971 4.395-4.435 0-2.464-1.99-4.435-4.395-4.435zm4.56-1.232c-.58 0-.994.493-.994.986s.497.985.995.985c.58 0 .995-.492.995-.985s-.415-.986-.995-.986z" fill="#4A4A49"/></svg>