<svg width="20" height="12" fill="none" xmlns="http://www.w3.org/2000/svg"><path d="M18.7.9c.2-.5 0-.8-.6-.8H16c-.5 0-.8.3-.9.6 0 0-1.1 2.6-2.6 4.3-.5.5-.7.6-1 .6-.2 0-.3-.2-.3-.6V.8c0-.5-.2-.8-.6-.8H7.3c-.3 0-.5.2-.5.5 0 .5.8.6.8 2.1v3.2c0 .7-.2.8-.4.8C6.5 6.6 4.7 4 3.7 1 3.5.4 3.3.2 2.8.2H.7C.1.2 0 .5 0 .8c0 .5.7 3.3 3.3 7 1.8 2.5 4.2 3.9 6.4 3.9 1.3 0 1.5-.3 1.5-.8V8.8c0-.6.2-.7.5-.7s.8.2 2.1 1.4c1.5 1.5 1.7 2.1 2.5 2.1h2.1c.6 0 .9-.3.7-.9-.2-.6-.8-1.5-1.8-2.5-.5-.6-1.2-1.2-1.5-1.5-.3-.4-.2-.6 0-.9 0 0 2.7-3.7 2.9-4.9z" fill="#4A4A49"/></svg>