<svg width="100" height="80" fill="none" xmlns="http://www.w3.org/2000/svg"><path opacity=".1" fill-rule="evenodd" clip-rule="evenodd" d="M88.748 59a8.003 8.003 0 01-15.496 0H63.5v-.02a6.37 6.37 0 01-.5.02H44.748a8.003 8.003 0 01-15.496 0H26a8 8 0 01-8-8V21a6 6 0 016-6h39a6 6 0 016 6v3.5h14.5l7.5 13 5 2.5v15l-2 4h-5.252z" fill="#F72A16"/><path d="M20 24.104V21a6 6 0 016-6h36a6 6 0 016 6v36" stroke="#F72A16" stroke-width="4"/><path d="M20 39v13.5a4.5 4.5 0 004.5 4.5" stroke="#FF3744" stroke-width="4" stroke-linecap="round"/><path d="M69 24h12.016a6 6 0 015.31 3.208L92 38H69" stroke="#F72A16" stroke-width="4"/><path d="M68 56.547V38h24a4 4 0 014 4v12.5a2.5 2.5 0 01-2.5 2.5" stroke="#F72A16" stroke-width="4" stroke-linecap="round" stroke-linejoin="round"/><path d="M10 24h21m-16 7.25h21m-33 0h5M10 39h16" stroke="#F72A16" stroke-width="4" stroke-linecap="round"/><path d="M50 56.889l18 .055" stroke="#FF3744" stroke-width="4" stroke-linecap="round"/><path d="M37 64a7 7 0 100-14 7 7 0 000 14z" stroke="#F72A16" stroke-width="4"/><path d="M37 58a1 1 0 100-2 1 1 0 000 2z" stroke="#F72A16" stroke-width="2"/><path d="M81 64a7 7 0 100-14 7 7 0 000 14z" stroke="#F72A16" stroke-width="4"/><path d="M81 58a1 1 0 100-2 1 1 0 000 2z" stroke="#FF3744" stroke-width="2"/></svg>