<svg width="100" height="80" fill="none" xmlns="http://www.w3.org/2000/svg"><path opacity=".1" fill-rule="evenodd" clip-rule="evenodd" d="M70 42l5 1v28.5H51l-4-1L24.5 69V42h-3l-3-4v-8l12-10 1.5-8.5h36.5L70 20l9.5 11v10l-2 1H70zm-30 0l-10.5-1-2 1H40z" fill="#FABC22"/><path clip-rule="evenodd" d="M20 30l10.4-10h39.2L80 30H20z" stroke="#FABC22" stroke-width="4" stroke-linejoin="round"/><path d="M31 21v-8a2 2 0 012-2h34a2 2 0 012 2v8" stroke="#FABC22" stroke-width="4" stroke-linejoin="round"/><path d="M20 36.745v1.594c.35 3.107 2.017 4.66 5 4.66s4.65-1.553 5-4.66V30.49" stroke="#FABC22" stroke-width="4" stroke-linecap="round"/><path d="M30 30v8.34c.35 3.106 2.017 4.66 5 4.66s4.65-1.553 5-4.66v-7.85m0-.49v8.34c.35 3.106 2.017 4.66 5 4.66s4.65-1.553 5-4.66v-7.85m0-.49v8.34c.35 3.106 2.017 4.66 5 4.66s4.65-1.553 5-4.66v-7.85m0-.49v8.34c.35 3.106 2.017 4.66 5 4.66s4.65-1.553 5-4.66v-7.85m0-.49v8.34c.35 3.106 2.017 4.66 5 4.66s4.65-1.553 5-4.66V30" stroke="#FABC22" stroke-width="4"/><path d="M26 49v19m48-19v19m-54 2h32m34 0h5m-32 0h21m-68 0h2" stroke="#FABC22" stroke-width="4" stroke-linecap="round"/><path d="M35 68V53a1 1 0 011-1h8a1 1 0 011 1v15" stroke="#FABC22" stroke-width="4"/><path clip-rule="evenodd" d="M54 59v-6a1 1 0 011-1h10a1 1 0 011 1v6a1 1 0 01-1 1H55a1 1 0 01-1-1z" stroke="#FABC22" stroke-width="4"/></svg>