<svg width="100" height="80" fill="none" xmlns="http://www.w3.org/2000/svg"><g clip-path="url(#clip0)"><path opacity=".1" fill-rule="evenodd" clip-rule="evenodd" d="M28.214 61.64c11.715 11.715 30.71 11.715 42.426 0 11.716-11.716 11.716-30.711 0-42.427-11.716-11.716-30.71-11.716-42.426 0-11.716 11.716-11.716 30.71 0 42.427z" fill="#06C92E"/><path d="M59.687 12.235c-15.57-5.667-32.785 2.361-38.452 17.93m49.031 31.841c11.919-11.51 12.25-30.502.74-42.42" stroke="#06C92E" stroke-width="4" stroke-linecap="round"/><path d="M74 57.633c9.504-13.572 6.206-32.278-7.367-41.782" stroke="#00BE52" stroke-width="4" stroke-linecap="round"/><path d="M23.188 54.97c8.033 14.492 26.292 19.727 40.783 11.695" stroke="#06C92E" stroke-width="4" stroke-linecap="round"/><path clip-rule="evenodd" d="M50.5 57C58.508 57 65 52.692 65 43c0-7.732-6.492-14-14.5-14S36 35.268 36 43c0 9.692 6.492 14 14.5 14z" stroke="#06C92E" stroke-width="4"/><path d="M50.5 46a1.5 1.5 0 100-3 1.5 1.5 0 000 3z" stroke="#06C92E" stroke-width="3"/><path d="M44 40a1 1 0 100-2 1 1 0 000 2zm13 0a1 1 0 100-2 1 1 0 000 2z" stroke="#06C92E" stroke-width="2"/><path d="M44.314 29.244c-2.343-2.343-5.826-2.66-7.779-.707-1.952 1.952-1.635 5.435.708 7.778m26.827-.001c2.344-2.343 2.66-5.826.708-7.779-1.953-1.952-5.435-1.636-7.779.708" stroke="#06C92E" stroke-width="4"/><path d="M16 25.66l3.66 8.222 8.223-3.66" stroke="#06C92E" stroke-width="4" stroke-linecap="round" stroke-linejoin="round"/></g><defs><clipPath id="clip0"><path fill="#fff" d="M0 0h100v80H0z"/></clipPath></defs></svg>