<svg width="100" height="80" fill="none" xmlns="http://www.w3.org/2000/svg"><path opacity=".1" fill-rule="evenodd" clip-rule="evenodd" d="M20 14h59a7 7 0 017 7v38l-3.5 3.554H68L64.5 59H27a7 7 0 01-7-7V14z" fill="#00C2FC"/><path d="M84 50H66v14h18V50z" stroke="#00C2FC" stroke-width="4" stroke-linecap="round" stroke-linejoin="round"/><path d="M81 48a6 6 0 00-12 0" stroke="#00C2FC" stroke-width="4"/><path d="M75 58a1 1 0 100-2 1 1 0 000 2z" stroke="#00C2FC" stroke-width="2"/><path d="M57.5 57H23a4 4 0 01-4-4V20a4 4 0 014-4h7.286" stroke="#00C2FC" stroke-width="4" stroke-linecap="round"/><path d="M20 27h64" stroke="#00C2FC" stroke-width="8"/><path d="M30 48.5a2.5 2.5 0 100-5 2.5 2.5 0 000 5zm9 0a2.5 2.5 0 100-5 2.5 2.5 0 000 5z" stroke="#00C2FC" stroke-width="5"/><path d="M39 52a6 6 0 100-12 6 6 0 000 12z" stroke="#E7F9FD" stroke-width="2"/><path d="M37.5 16H80a4 4 0 014 4v18" stroke="#00C2FC" stroke-width="4" stroke-linecap="round"/></svg>